name C:\Users\u0101727\Documents\MyRepositories\upper-imu-dc\Results\main_tracking\Case_47\kinematics_filtered.mot
datacolumns 10
datarows 28
range 0.50000000 0.77000000
endheader 
time	clav_prot	clav_elev	scapula_abduction	scapula_elevation	scapula_upward_rot	scapula_winging	plane_elv	shoulder_elv	axial_rot	
          0.50000000	        -23.49847890	         -5.82689179	        -13.50484365	         -5.17133366	         12.86636682	          5.95918534	        -33.47161632	         15.21918477	         58.62627056	
          0.51000000	        -23.44914133	         -5.81929260	        -13.47740806	         -5.18445350	         12.89807487	          5.95388549	        -33.52375814	         15.24833773	         58.50475727	
          0.52000000	        -23.40361793	         -5.81325606	        -13.44934694	         -5.19776161	         12.92983247	          5.94866253	        -33.57626078	         15.27802465	         58.37867950	
          0.53000000	        -23.36453333	         -5.80968773	        -13.42081648	         -5.21114703	         12.96109909	          5.94366363	        -33.62827242	         15.30810292	         58.24693966	
          0.54000000	        -23.33278729	         -5.80895840	        -13.39195234	         -5.22453661	         12.99141961	          5.93902216	        -33.67902097	         15.33854056	         58.10785115	
          0.55000000	        -23.30806894	         -5.81103732	        -13.36293656	         -5.23788457	         13.02042843	          5.93485111	        -33.72778910	         15.36939554	         57.95937452	
          0.56000000	        -23.28942984	         -5.81565565	        -13.33402645	         -5.25116392	         13.04785183	          5.93123802	        -33.77389227	         15.40078902	         57.79937125	
          0.57000000	        -23.27568541	         -5.82242807	        -13.30554829	         -5.26436035	         13.07350742	          5.92824249	        -33.81666183	         15.43287370	         57.62584937	
          0.58000000	        -23.26567145	         -5.83093675	        -13.27787274	         -5.27746837	         13.09730032	          5.92589592	        -33.85543250	         15.46580161	         57.43717734	
          0.59000000	        -23.25838733	         -5.84078448	        -13.25138365	         -5.29048934	         13.11921664	          5.92420309	        -33.88953144	         15.49969523	         57.23224651	
          0.60000000	        -23.25305723	         -5.85162423	        -13.22644767	         -5.30343083	         13.13931467	          5.92314535	        -33.91826602	         15.53462483	         57.01056848	
          0.61000000	        -23.24913684	         -5.86317222	        -13.20338922	         -5.31630704	         13.15771458	          5.92268464	        -33.94090771	         15.57059362	         56.77230203	
          0.62000000	        -23.24628791	         -5.87521029	        -13.18247275	         -5.32913993	         13.17458740	          5.92276824	        -33.95667107	         15.60753119	         56.51821269	
          0.63000000	        -23.24433681	         -5.88758202	        -13.16389192	         -5.34196057	         13.19014379	          5.92333354	        -33.96468814	         15.64529442	         56.24957654	
          0.64000000	        -23.24322779	         -5.90018562	        -13.14776339	         -5.35481038	         13.20462336	          5.92431263	        -33.96398026	         15.68367431	         55.96804614	
          0.65000000	        -23.24297637	         -5.91296566	        -13.13412138	         -5.36774162	         13.21828451	          5.92563627	        -33.95343020	         15.72240642	         55.67549984	
          0.66000000	        -23.24362616	         -5.92590466	        -13.12291061	         -5.38081676	         13.23139453	          5.92723723	        -33.93175847	         15.76118276	         55.37389545	
          0.67000000	        -23.24521115	         -5.93901479	        -13.11397806	         -5.39410627	         13.24421955	          5.92905290	        -33.89750703	         15.79966313	         55.06514518	
          0.68000000	        -23.24772596	         -5.95232989	        -13.10706686	         -5.40768466	         13.25701387	          5.93102735	        -33.84903355	         15.83748460	         54.75102255	
          0.69000000	        -23.25110640	         -5.96589743	        -13.10181696	         -5.42162516	         13.27000885	          5.93311274	        -33.78451786	         15.87426852	         54.43310425	
          0.70000000	        -23.25522157	         -5.97977057	        -13.09777645	         -5.43599326	         13.28340198	          5.93527020	        -33.70198100	         15.90962522	         54.11274343	
          0.71000000	        -23.25987789	         -5.99400028	        -13.09442506	         -5.45084019	         13.29734729	          5.93747010	        -33.59931615	         15.94315696	         53.79106504	
          0.72000000	        -23.26483365	         -6.00862789	        -13.09120905	         -5.46619693	         13.31194808	          5.93969167	        -33.47432927	         15.97446041	         53.46897146	
          0.73000000	        -23.26982199	         -6.02367837	        -13.08758469	         -5.48206959	         13.32725348	          5.94192190	        -33.32478662	         16.00312947	         53.14714559	
          0.74000000	        -23.27457980	         -6.03915486	        -13.08306679	         -5.49843697	         13.34325939	          5.94415380	        -33.14846598	         16.02875989	         52.82604098	
          0.75000000	        -23.27887983	         -6.05503476	        -13.07727848	         -5.51525056	         13.35991478	          5.94638395	        -32.94320827	         16.05095606	         52.50585227	
          0.76000000	        -23.28256391	         -6.07126750	        -13.06999884	         -5.53243739	         13.37713333	          5.94860933	        -32.70696713	         16.06934056	         52.18646491	
          0.77000000	        -23.28557507	         -6.08777445	        -13.06120531	         -5.54990574	         13.39481062	          5.95082371	        -32.43785420	         16.08356592	         51.86738912	
